<svg width="50" height="50" viewBox="0 0 50 50" fill="none" xmlns="http://www.w3.org/2000/svg">
<g clip-path="url(#clip0_383_600)">
<path d="M35.9375 37.5C36.8004 37.5 37.5 36.8004 37.5 35.9375C37.5 35.0746 36.8004 34.375 35.9375 34.375C35.0746 34.375 34.375 35.0746 34.375 35.9375C34.375 36.8004 35.0746 37.5 35.9375 37.5Z" fill="white"/>
<path d="M31.25 34.375H12.5V37.5H31.25V34.375Z" fill="white"/>
<path d="M35.9375 15.625C36.8004 15.625 37.5 14.9254 37.5 14.0625C37.5 13.1996 36.8004 12.5 35.9375 12.5C35.0746 12.5 34.375 13.1996 34.375 14.0625C34.375 14.9254 35.0746 15.625 35.9375 15.625Z" fill="white"/>
<path d="M31.25 12.5H12.5V15.625H31.25V12.5Z" fill="white"/>
<path d="M40.625 21.875C41.4538 21.875 42.2487 21.5458 42.8347 20.9597C43.4208 20.3737 43.75 19.5788 43.75 18.75V9.375C43.75 8.5462 43.4208 7.75134 42.8347 7.16529C42.2487 6.57924 41.4538 6.25 40.625 6.25H9.375C8.5462 6.25 7.75134 6.57924 7.16529 7.16529C6.57924 7.75134 6.25 8.5462 6.25 9.375V18.75C6.25 19.5788 6.57924 20.3737 7.16529 20.9597C7.75134 21.5458 8.5462 21.875 9.375 21.875H12.5V28.125H9.375C8.5462 28.125 7.75134 28.4542 7.16529 29.0403C6.57924 29.6263 6.25 30.4212 6.25 31.25V40.625C6.25 41.4538 6.57924 42.2487 7.16529 42.8347C7.75134 43.4208 8.5462 43.75 9.375 43.75H40.625C41.4538 43.75 42.2487 43.4208 42.8347 42.8347C43.4208 42.2487 43.75 41.4538 43.75 40.625V31.25C43.75 30.4212 43.4208 29.6263 42.8347 29.0403C42.2487 28.4542 41.4538 28.125 40.625 28.125H37.5V21.875H40.625ZM9.375 9.375H40.625V18.75H9.375V9.375ZM40.625 40.625H9.375V31.25H40.625V40.625ZM34.375 28.125H15.625V21.875H34.375V28.125Z" fill="white"/>
</g>
<defs>
<clipPath id="clip0_383_600">
<rect width="50" height="50" fill="white"/>
</clipPath>
</defs>
</svg>
