<svg width="15" height="15" viewBox="0 0 15 15" fill="none" xmlns="http://www.w3.org/2000/svg">
<g clip-path="url(#clip0_405_715)">
<path d="M13.125 5V4.375L11.25 5.625L9.375 4.375V5L11.25 6.25M13.75 1.875H1.25C0.918479 1.875 0.600537 2.0067 0.366117 2.24112C0.131696 2.47554 0 2.79348 0 3.125L0 11.875C0 12.2065 0.131696 12.5245 0.366117 12.7589C0.600537 12.9933 0.918479 13.125 1.25 13.125H13.75C14.0815 13.125 14.3995 12.9933 14.6339 12.7589C14.8683 12.5245 15 12.2065 15 11.875V3.125C15 2.79348 14.8683 2.47554 14.6339 2.24112C14.3995 2.0067 14.0815 1.875 13.75 1.875ZM5 3.75C5.49728 3.75 5.97419 3.94754 6.32583 4.29917C6.67746 4.65081 6.875 5.12772 6.875 5.625C6.875 6.12228 6.67746 6.59919 6.32583 6.95083C5.97419 7.30246 5.49728 7.5 5 7.5C4.50272 7.5 4.02581 7.30246 3.67417 6.95083C3.32254 6.59919 3.125 6.12228 3.125 5.625C3.125 5.12772 3.32254 4.65081 3.67417 4.29917C4.02581 3.94754 4.50272 3.75 5 3.75ZM8.75 11.25H1.25V10.625C1.25 9.375 3.75 8.6875 5 8.6875C6.25 8.6875 8.75 9.375 8.75 10.625M13.75 7.5H8.75V3.75H13.75" fill="black"/>
</g>
<defs>
<clipPath id="clip0_405_715">
<rect width="15" height="15" fill="white"/>
</clipPath>
</defs>
</svg>
