<svg width="50" height="50" viewBox="0 0 50 50" fill="none" xmlns="http://www.w3.org/2000/svg">
<g clip-path="url(#clip0_383_621)">
<path d="M24.9959 0L15.2146 5.66042V9.92083L5.05839 15.7396V26.1771L0.704224 28.6958V40.0187L10.4896 45.6833L13.9521 43.6771L25.0001 50L36.0417 43.6771L39.5105 45.6833L49.2959 40.0187V28.6937L44.9417 26.1792V15.7396L34.7813 9.92083V5.66042L24.9959 0ZM24.9959 2.48958L31.5105 6.26667L25.0001 10.0062L18.4896 6.2625L24.9959 2.48958ZM17.3751 8.11458L23.9209 11.875V19.5333L17.3751 15.7396V8.11458ZM32.6209 8.11458V15.7396L26.0834 19.5271V11.8729L32.6209 8.11458ZM34.7813 12.4104L42.7855 16.9875V24.9312L39.5105 23.0354L29.7251 28.6937V40.0187L33.8876 42.4271L25.0001 47.5104L16.1167 42.4271L20.2751 40.0187V28.6937L10.4896 23.0354L7.21881 24.9271V16.9896L15.2146 12.4146V16.9875H15.2188L25.0001 22.6479L34.7813 16.9875V12.4104ZM10.4896 25.5292L17.0001 29.2958L10.4896 33.0396L3.97922 29.2979L5.05839 28.6708L10.4896 25.5292ZM39.5105 25.5292L44.9417 28.675L46.0167 29.2979L39.5105 33.0396L33.0001 29.2979L39.5105 25.5292ZM2.86881 31.1437L9.41464 34.9125V42.5708L2.86881 38.7708V31.1437ZM18.1146 31.1437V38.7729L11.7876 42.4375L11.5771 42.5625V34.9104L18.1146 31.1437ZM31.8855 31.1437L38.4355 34.9125V42.5708L38.2126 42.4354L31.8855 38.7729V31.1437ZM47.1313 31.1437V38.7729L40.5917 42.5625V34.9125L47.1313 31.1437Z" fill="white"/>
</g>
<defs>
<clipPath id="clip0_383_621">
<rect width="50" height="50" fill="white"/>
</clipPath>
</defs>
</svg>
