<svg width="41" height="37" viewBox="0 0 41 37" fill="none" xmlns="http://www.w3.org/2000/svg">
<path d="M23.3876 18.2451C23.3876 19.6782 22.1837 20.8888 20.6376 20.8888C19.0916 20.8888 17.8876 19.6782 17.8876 18.2451C17.8876 16.8119 19.0916 15.6013 20.6376 15.6013C22.1837 15.6013 23.3876 16.8119 23.3876 18.2451Z" fill="white" stroke="white" stroke-width="2"/>
<path fill-rule="evenodd" clip-rule="evenodd" d="M20.3754 10.8365C25.2284 10.8365 29.7368 11.5385 33.1361 12.7182C37.2318 14.1396 39.75 16.2941 39.75 18.2451C39.75 20.2781 37.0813 22.567 32.683 24.0359C29.3578 25.1464 24.9822 25.7261 20.3754 25.7261C15.6521 25.7261 11.1794 25.182 7.81678 24.0236C3.56244 22.5578 1 20.2394 1 18.2451C1 16.3099 3.40436 14.172 7.44248 12.7529C10.8545 11.5537 15.4741 10.8365 20.3746 10.8365H20.3754Z" stroke="white" stroke-width="2"/>
<path fill-rule="evenodd" clip-rule="evenodd" d="M14.1907 14.5621C16.6858 10.3243 19.6243 6.73795 22.4153 4.35881C25.7778 1.49231 28.978 0.369688 30.7032 1.3442C32.5011 2.35982 33.1533 5.83391 32.1912 10.4084C31.4644 13.867 29.727 17.9775 27.3584 22.0006C24.93 26.1252 22.1495 29.7592 19.3965 32.1162C15.913 35.099 12.5452 36.1785 10.7816 35.1822C9.07019 34.2162 8.41575 31.048 9.23674 26.8127C9.9304 23.234 11.6712 18.8416 14.1899 14.5621H14.1907Z" stroke="white" stroke-width="2"/>
<path fill-rule="evenodd" clip-rule="evenodd" d="M14.1827 22.0113C11.6872 17.7781 9.98821 13.4926 9.27903 9.93589C8.42536 5.65058 9.02893 2.37413 10.748 1.39679C12.5394 0.378194 15.9286 1.55978 19.4845 4.66089C22.173 7.00546 24.9337 10.5323 27.3027 14.5514C29.7315 18.6721 31.5519 22.8469 32.26 26.3602C33.156 30.8063 32.4308 34.2033 30.6735 35.2023C28.9685 36.1719 25.8483 35.1455 22.5212 32.3334C19.7102 29.9576 16.7027 26.2867 14.1827 22.0113Z" stroke="white" stroke-width="2"/>
</svg>
