<svg width="15" height="15" viewBox="0 0 15 15" fill="none" xmlns="http://www.w3.org/2000/svg">
<g clip-path="url(#clip0_404_708)">
<path d="M13.3385 4.9875L13.4337 4.89516C13.4531 4.87676 13.4686 4.85458 13.4792 4.82997C13.4898 4.80537 13.4953 4.77886 13.4953 4.75207C13.4953 4.72528 13.4898 4.69877 13.4792 4.67417C13.4686 4.64957 13.4531 4.62739 13.4337 4.60899L11.1982 2.445C11.1583 2.40675 11.1051 2.3854 11.0498 2.3854C10.9945 2.3854 10.9414 2.40675 10.9015 2.445C10.9015 2.445 10.4376 2.70961 10.3535 2.01445C10.32 1.73484 10.2567 1.56 10.1735 1.46016C10.1632 1.44867 9.70218 0.996798 9.70218 0.996798C9.6622 0.958657 9.60907 0.937378 9.55382 0.937378C9.49857 0.937378 9.44544 0.958657 9.40546 0.996798L7.73226 2.6168C7.71283 2.63528 7.69737 2.65751 7.6868 2.68214C7.67623 2.70678 7.67078 2.73331 7.67078 2.76012C7.67078 2.78693 7.67623 2.81345 7.6868 2.83809C7.69737 2.86273 7.71283 2.88496 7.73226 2.90344C7.73226 2.90344 8.1989 3.34992 8.21108 3.3593C8.31397 3.44016 8.49444 3.50133 8.78366 3.53367C9.50179 3.61524 9.22804 4.06383 9.22804 4.06383C9.2086 4.08235 9.19313 4.10462 9.18255 4.1293C9.17198 4.15397 9.16653 4.18054 9.16653 4.20738C9.16653 4.23423 9.17198 4.2608 9.18255 4.28547C9.19313 4.31015 9.2086 4.33242 9.22804 4.35094L9.71296 4.82039L8.45741 6.03563L8.27155 5.85563C8.27155 5.85563 7.61132 6.26508 6.88593 6.96774C6.0846 7.74305 5.63554 8.7675 4.57827 9.79055C2.9885 11.3292 2.21507 11.678 1.57405 12.1423C1.33218 12.3169 1.35491 12.3445 1.5764 12.559L2.26546 13.2265L2.95452 13.8935C3.176 14.1073 3.20483 14.1293 3.38577 13.8959C3.86507 13.2757 4.25436 12.555 5.84413 11.0156C6.90116 9.99305 7.9603 9.55805 8.76069 8.78274C9.48632 8.08031 9.9096 7.44141 9.9096 7.44141L9.72374 7.26117L10.9786 6.04594L11.4635 6.51563C11.5035 6.55357 11.5566 6.57468 11.6117 6.57459C11.6669 6.5745 11.7199 6.55322 11.7598 6.51516L11.8331 6.44414C12.262 6.79453 13.6448 8.06438 13.2075 9.54703C13.1477 9.74977 13.0446 9.93047 13.0973 9.9818C13.1693 10.0509 13.4444 9.78539 13.6048 9.62906C15.6415 7.64297 13.7433 5.41711 13.3385 4.9875Z" fill="black"/>
<path d="M9.55546 8.54253C9.37086 8.74719 9.17951 8.94566 8.98171 9.1376C8.68147 9.42823 8.35218 9.68135 8.00343 9.92721L11.3233 13.2422C11.4212 13.3389 11.5532 13.3931 11.6907 13.3931C11.8283 13.3931 11.9603 13.3389 12.0581 13.2422L12.7929 12.5086C12.8901 12.4113 12.9447 12.2794 12.9447 12.1418C12.9447 12.0043 12.8901 11.8723 12.7929 11.775L9.55546 8.54253ZM2.94866 6.88573L3.95296 5.88307L5.801 7.72831C6.04569 7.40534 6.29858 7.09971 6.58733 6.82034C6.79805 6.61644 7.01592 6.42007 7.24054 6.23159L5.42202 4.41612L6.42585 3.41393C6.4746 3.36518 6.51328 3.3073 6.53967 3.2436C6.56606 3.1799 6.57964 3.11163 6.57964 3.04268C6.57964 2.97373 6.56606 2.90546 6.53967 2.84176C6.51328 2.77806 6.4746 2.72018 6.42585 2.67143L4.84335 1.09127C4.74438 0.993014 4.6106 0.937832 4.47114 0.937744C4.33168 0.937656 4.19783 0.99267 4.09874 1.09081L3.09538 2.09299L2.70749 1.70581C2.60973 1.60913 2.47781 1.55487 2.34032 1.55478C2.20283 1.5547 2.07084 1.60879 1.97296 1.70534L1.23843 2.4394C1.14145 2.53674 1.08699 2.66855 1.08699 2.80596C1.08699 2.94337 1.14145 3.07518 1.23843 3.17252L1.62632 3.55971L0.62202 4.56237C0.52398 4.66115 0.468964 4.79468 0.468964 4.93385C0.468964 5.07303 0.52398 5.20656 0.62202 5.30534L2.20569 6.88573C2.30447 6.98377 2.438 7.03878 2.57718 7.03878C2.71635 7.03878 2.84988 6.98377 2.94866 6.88573Z" fill="black"/>
</g>
<defs>
<clipPath id="clip0_404_708">
<rect width="15" height="15" fill="white"/>
</clipPath>
</defs>
</svg>
