<svg width="194" height="309" viewBox="0 0 194 309" fill="none" xmlns="http://www.w3.org/2000/svg">
<path d="M55.8585 143.658L58.0739 34.0869L154.073 86.9539L55.8585 143.658Z" stroke="white"/>
<path d="M62.6116 192.174L83.8201 84.6524L169.18 153.386L62.6116 192.174Z" stroke="white"/>
<path d="M66.1003 239.705L105.658 137.499L177.786 220.012L66.1003 239.705Z" stroke="white"/>
<path d="M65.8123 276.333L122.516 182.549L179.22 276.333H65.8123Z" stroke="white"/>
<path d="M120.5 298.5C120.5 302.399 117.558 305.5 114 305.5C110.442 305.5 107.5 302.399 107.5 298.5C107.5 294.601 110.442 291.5 114 291.5C117.558 291.5 120.5 294.601 120.5 298.5Z" stroke="white"/>
<path d="M139.5 298.5C139.5 302.399 136.558 305.5 133 305.5C129.442 305.5 126.5 302.399 126.5 298.5C126.5 294.601 129.442 291.5 133 291.5C136.558 291.5 139.5 294.601 139.5 298.5Z" stroke="white"/>
<path d="M158.5 298.5C158.5 302.399 155.558 305.5 152 305.5C148.442 305.5 145.5 302.399 145.5 298.5C145.5 294.601 148.442 291.5 152 291.5C155.558 291.5 158.5 294.601 158.5 298.5Z" stroke="white"/>
<path d="M101.5 298.5C101.5 302.399 98.5579 305.5 95 305.5C91.4421 305.5 88.5 302.399 88.5 298.5C88.5 294.601 91.4421 291.5 95 291.5C98.5579 291.5 101.5 294.601 101.5 298.5Z" stroke="white"/>
<line x1="82" y1="298.5" x2="164" y2="298.5" stroke="white"/>
</svg>
