<svg width="15" height="15" viewBox="0 0 15 15" fill="none" xmlns="http://www.w3.org/2000/svg">
<path d="M7.5 4.375C7.84518 4.375 8.125 4.09518 8.125 3.75C8.125 3.40482 7.84518 3.125 7.5 3.125C7.15482 3.125 6.875 3.40482 6.875 3.75C6.875 4.09518 7.15482 4.375 7.5 4.375Z" fill="white"/>
<path d="M3.75 10.625H11.25V11.875H3.75V10.625ZM6.25 7.39375L7.995 9.14L10.4525 6.68063L11.25 7.5V5H8.75L9.56875 5.79687L7.99438 7.37125L6.25 5.625L3.75 8.125L4.63375 9.00875L6.25 7.39375Z" fill="white"/>
<path d="M11.875 1.87498H9.81375C9.75184 1.78295 9.68508 1.69429 9.61375 1.60936L9.6075 1.60186C9.14814 1.06721 8.50215 0.727905 7.80125 0.653107C7.60217 0.61555 7.39783 0.61555 7.19875 0.653107C6.49785 0.727905 5.85186 1.06721 5.3925 1.60186L5.38625 1.60936C5.31493 1.69408 5.24817 1.78254 5.18625 1.87436V1.87498H3.125C2.62787 1.87548 2.15125 2.07318 1.79972 2.4247C1.4482 2.77623 1.2505 3.25285 1.25 3.74998V12.5C1.2505 12.9971 1.4482 13.4737 1.79972 13.8253C2.15125 14.1768 2.62787 14.3745 3.125 14.375H11.875C12.3721 14.3745 12.8488 14.1768 13.2003 13.8253C13.5518 13.4737 13.7495 12.9971 13.75 12.5V3.74998C13.7495 3.25285 13.5518 2.77623 13.2003 2.4247C12.8488 2.07318 12.3721 1.87548 11.875 1.87498ZM12.5 12.5C12.5 12.6657 12.4342 12.8247 12.3169 12.9419C12.1997 13.0591 12.0408 13.125 11.875 13.125H3.125C2.95924 13.125 2.80027 13.0591 2.68306 12.9419C2.56585 12.8247 2.5 12.6657 2.5 12.5V3.74998C2.5 3.58422 2.56585 3.42525 2.68306 3.30804C2.80027 3.19083 2.95924 3.12498 3.125 3.12498H5.96875C6.04047 2.77177 6.2321 2.45421 6.51117 2.22611C6.79024 1.99802 7.13958 1.87342 7.5 1.87342C7.86042 1.87342 8.20976 1.99802 8.48883 2.22611C8.7679 2.45421 8.95953 2.77177 9.03125 3.12498H11.875C12.0408 3.12498 12.1997 3.19083 12.3169 3.30804C12.4342 3.42525 12.5 3.58422 12.5 3.74998V12.5Z" fill="white"/>
</svg>
