<svg width="50" height="50" viewBox="0 0 50 50" fill="none" xmlns="http://www.w3.org/2000/svg">
<path d="M44.5312 33.4688L36.1562 25L43.2187 17.9375C43.9453 17.2145 44.5219 16.355 44.9153 15.4084C45.3088 14.4619 45.5113 13.4469 45.5113 12.4219C45.5113 11.3968 45.3088 10.3819 44.9153 9.43533C44.5219 8.48878 43.9453 7.6293 43.2187 6.90625C41.7543 5.44641 39.7709 4.62666 37.7031 4.62666C35.6353 4.62666 33.6519 5.44641 32.1875 6.90625L29.4062 9.65625L25 14.0625L16.5 5.46875C15.7645 4.75105 14.7776 4.3493 13.75 4.3493C12.7224 4.3493 11.7355 4.75105 11 5.46875L5.46874 11C5.10497 11.3629 4.81635 11.7939 4.61943 12.2685C4.4225 12.7431 4.32114 13.2518 4.32114 13.7656C4.32114 14.2794 4.4225 14.7882 4.61943 15.2628C4.81635 15.7373 5.10497 16.1684 5.46874 16.5313L14.0625 25L13.375 25.6875L10.5937 28.4375L5.12499 39.875C4.77106 40.6054 4.65339 41.4278 4.78835 42.2281C4.92331 43.0284 5.3042 43.7668 5.87808 44.3407C6.45196 44.9146 7.19035 45.2954 7.99064 45.4304C8.79093 45.5654 9.61339 45.4477 10.3437 45.0938L21.6562 39.625L23.1875 38.0938L24.4062 36.875L25 36.1563L33.375 44.5313C34.1105 45.249 35.0974 45.6507 36.125 45.6507C37.1526 45.6507 38.1395 45.249 38.875 44.5313L44.4062 39C44.7783 38.6454 45.0768 38.2209 45.2845 37.7508C45.4922 37.2807 45.6052 36.7742 45.6168 36.2603C45.6284 35.7465 45.5385 35.2354 45.3522 34.7564C45.1659 34.2773 44.8869 33.8398 44.5312 33.4688ZM37.6875 8.46875C38.7261 8.4654 39.7246 8.86929 40.4687 9.59375C40.8325 9.95661 41.1211 10.3877 41.3181 10.8622C41.515 11.3368 41.6163 11.8456 41.6163 12.3594C41.6163 12.8732 41.515 13.3819 41.3181 13.8565C41.1211 14.3311 40.8325 14.7621 40.4687 15.125L34.9375 9.75C35.6739 9.03307 36.6597 8.62978 37.6875 8.625V8.46875ZM8.21874 13.75L13.75 8.25L16.3125 10.8125L13.5937 13.5625L16.3437 16.3125L19.0937 13.5625L22.2187 16.6875L16.8125 22.3438L8.21874 13.75ZM8.62499 41.5938L13.5312 31.5L18.75 36.6875L8.62499 41.5938ZM21.6562 34.0938L16.125 28.5625L32.1875 12.5L37.6875 18L21.6562 34.0938ZM36.25 41.75L27.875 33.4063L33.4062 27.875L36.3125 30.7813L33.5625 33.5313L36.3125 36.3125L39.0937 33.5313L41.7812 36.25L36.25 41.75Z" fill="white"/>
</svg>
