<svg width="42" height="42" viewBox="0 0 42 42" fill="none" xmlns="http://www.w3.org/2000/svg">
<path d="M31.625 1H10.375C5.19733 1 1 5.19733 1 10.375V31.625C1 36.8027 5.19733 41 10.375 41H31.625C36.8027 41 41 36.8027 41 31.625V10.375C41 5.19733 36.8027 1 31.625 1Z" fill="#007ACC" stroke="white"/>
<path d="M9.84547 21.1326L9.83276 22.7708H12.4359H15.0391V30.1676V37.5644H16.8804H18.7217V30.1676V22.7708H21.3248H23.9279V21.1644C23.9279 20.2755 23.909 19.5326 23.8836 19.5136C23.8645 19.4883 20.6962 19.4755 16.855 19.4819L9.86451 19.5009L9.84547 21.1326Z" fill="white"/>
<path d="M33.2761 19.4544C34.2919 19.7085 35.0666 20.1593 35.7777 20.8957C36.146 21.2894 36.6919 22.0069 36.7364 22.1783C36.7491 22.2291 35.0094 23.3974 33.9555 24.0513C33.9174 24.0768 33.7649 23.9116 33.5935 23.6577C33.0792 22.9085 32.5395 22.5846 31.7141 22.5275C30.5014 22.4449 29.7205 23.0799 29.7269 24.1402C29.7269 24.4513 29.7713 24.6354 29.8983 24.8894C30.1649 25.4418 30.6602 25.7719 32.2158 26.4449C35.0792 27.6768 36.3045 28.4894 37.0666 29.6449C37.9174 30.9338 38.1078 32.991 37.53 34.5211C36.8952 36.1846 35.3205 37.3147 33.1045 37.6894C32.4189 37.81 30.7935 37.791 30.057 37.6577C28.4506 37.3719 26.9269 36.5783 25.9872 35.5371C25.6189 35.1307 24.9014 34.0704 24.946 33.9941C24.9649 33.9688 25.13 33.8672 25.3141 33.7593C25.4919 33.6577 26.165 33.2704 26.7999 32.9021L27.9491 32.2354L28.1903 32.591C28.5269 33.1052 29.2633 33.81 29.7078 34.0449C30.9839 34.718 32.7364 34.6227 33.5999 33.8482C33.9681 33.5116 34.1205 33.1624 34.1205 32.6482C34.1205 32.1846 34.0633 31.9814 33.822 31.6322C33.511 31.1879 32.8761 30.8132 31.0728 30.0322C29.0094 29.1433 28.1205 28.591 27.3078 27.7147C26.838 27.2069 26.3934 26.3941 26.2094 25.7147C26.057 25.1497 26.0189 23.7338 26.1395 23.1624C26.5649 21.1688 28.0697 19.7783 30.2411 19.3655C30.946 19.2322 32.5839 19.283 33.2761 19.4544Z" fill="white"/>
</svg>
