<svg width="40" height="40" viewBox="0 0 40 40" fill="none" xmlns="http://www.w3.org/2000/svg">
<g clip-path="url(#clip0_310_20)">
<path d="M9.375 0.5H30.625C35.5265 0.5 39.5 4.47347 39.5 9.375V30.625C39.5 35.5265 35.5265 39.5 30.625 39.5H9.375C4.47347 39.5 0.5 35.5265 0.5 30.625V9.375C0.5 4.47347 4.47347 0.5 9.375 0.5Z" fill="#2396ED" stroke="white"/>
<path d="M22.0605 19.0817H25.2975V16.153H22.0605V19.0817ZM18.207 19.0817H21.4439V16.153H18.207V19.0817ZM14.4305 19.0817H17.6675V16.153H14.4305V19.0817ZM10.654 19.0817H13.814V16.153H10.654V19.0817ZM6.80052 19.0817H10.0375V16.153H6.80052V19.0817ZM10.654 15.5365H13.814V12.6077H10.654V15.5365ZM14.4305 15.5365H17.6675V12.6077H14.4305V15.5365ZM18.207 15.5365H21.4439V12.6077H18.207V15.5365ZM18.207 11.9912H21.4439V9.0625H18.207V11.9912ZM35.625 17.7716C35.625 17.7716 34.2377 16.4612 31.3861 16.9237C31.0778 14.6887 28.6886 13.3785 28.6886 13.3785C28.6886 13.3785 26.4536 16.0759 28.072 19.0817C27.6097 19.313 26.8389 19.6212 25.6828 19.6212H4.48839C4.10303 21.0856 4.10303 30.7964 14.7388 30.7964C22.3687 30.7964 28.072 27.2512 30.7695 20.7772C34.7772 21.0856 35.625 17.7716 35.625 17.7716Z" fill="white"/>
</g>
<defs>
<clipPath id="clip0_310_20">
<rect width="40" height="40" fill="white"/>
</clipPath>
</defs>
</svg>
