<svg width="40" height="40" viewBox="0 0 40 40" fill="none" xmlns="http://www.w3.org/2000/svg">
<path d="M9.375 0.5H30.625C35.5265 0.5 39.5 4.47347 39.5 9.375V30.625C39.5 35.5265 35.5265 39.5 30.625 39.5H9.375C4.47347 39.5 0.5 35.5265 0.5 30.625V9.375C0.5 4.47347 4.47347 0.5 9.375 0.5Z" fill="#F0DB4F" stroke="white"/>
<path d="M10.5174 33.4269L13.5785 31.5744C14.169 32.6214 14.7062 33.5073 15.9948 33.5073C17.2299 33.5073 18.0087 33.0242 18.0087 31.1448V18.3639H21.7678V31.198C21.7678 35.0912 19.4856 36.8634 16.1559 36.8634C13.1489 36.8634 11.4034 35.3061 10.5173 33.4265" fill="#323330"/>
<path d="M23.8096 33.0241L26.8702 31.2521C27.676 32.5678 28.7232 33.5344 30.5757 33.5344C32.1333 33.5344 33.1264 32.7556 33.1264 31.6816C33.1264 30.3928 32.1061 29.9363 30.3877 29.1847L29.4482 28.7817C26.7361 27.6274 24.9371 26.1774 24.9371 23.1164C24.9371 20.2971 27.0852 18.1489 30.4416 18.1489C32.8313 18.1489 34.5497 18.9814 35.7847 21.1563L32.858 23.0358C32.2135 21.8813 31.5157 21.4249 30.4416 21.4249C29.3407 21.4249 28.6425 22.123 28.6425 23.0358C28.6425 24.1635 29.3407 24.62 30.9516 25.3183L31.8913 25.721C35.0864 27.0905 36.8855 28.4864 36.8855 31.6278C36.8855 35.0113 34.2274 36.8638 30.6563 36.8638C27.1658 36.8638 24.9104 35.1991 23.8096 33.0241Z" fill="#323330"/>
</svg>
