<svg width="40" height="40" viewBox="0 0 40 40" fill="none" xmlns="http://www.w3.org/2000/svg">
<path d="M9.375 0.5H30.625C35.5265 0.5 39.5 4.47347 39.5 9.375V30.625C39.5 35.5265 35.5265 39.5 30.625 39.5H9.375C4.47347 39.5 0.5 35.5265 0.5 30.625V9.375C0.5 4.47347 4.47347 0.5 9.375 0.5Z" fill="#242938" stroke="white"/>
<path d="M18.9767 4.38341C18.9095 4.38952 18.6956 4.41091 18.5031 4.42618C14.0646 4.82635 9.90714 7.22127 7.27395 10.9022C5.80767 12.9489 4.86987 15.2705 4.51552 17.7296C4.39028 18.588 4.375 18.8416 4.375 20.0053C4.375 21.1692 4.39028 21.4228 4.51552 22.2811C5.36473 28.1492 9.54056 33.0797 15.2041 34.9064C16.2183 35.2333 17.2873 35.4563 18.5031 35.5906C18.9767 35.6425 21.0233 35.6425 21.4969 35.5906C23.5955 35.3585 25.3733 34.8392 27.1267 33.9441C27.3955 33.8067 27.4475 33.77 27.4108 33.7396C27.3864 33.7211 26.2408 32.1846 24.8662 30.3274L22.3675 26.9519L19.2362 22.3178C17.5134 19.7702 16.0961 17.6867 16.0837 17.6867C16.0716 17.6838 16.0594 19.7427 16.0533 22.2567C16.0441 26.6586 16.0411 26.8358 15.9861 26.9396C15.9067 27.0892 15.8456 27.1503 15.7172 27.2177C15.6195 27.2664 15.534 27.2756 15.0727 27.2756H14.5442L14.4037 27.1871C14.3121 27.1291 14.2449 27.0527 14.199 26.9641L14.1349 26.8266L14.141 20.7019L14.1502 14.574L14.2449 14.4549C14.2937 14.3908 14.3976 14.3083 14.4709 14.2686C14.5962 14.2075 14.645 14.2013 15.1735 14.2013C15.7967 14.2013 15.9005 14.2258 16.0625 14.403C16.1083 14.4518 17.8036 17.0056 19.832 20.0817C21.8603 23.1578 24.6341 27.3581 25.9964 29.42L28.4708 33.1683L28.5961 33.0858C29.7048 32.3649 30.878 31.3385 31.8066 30.2692C33.783 27.9996 35.0569 25.2321 35.4845 22.2811C35.6097 21.4228 35.625 21.1692 35.625 20.0053C35.625 18.8416 35.6097 18.588 35.4845 17.7296C34.6353 11.8614 30.4594 6.93107 24.7959 5.10433C23.797 4.78053 22.7341 4.55753 21.5427 4.42313C21.2494 4.39258 19.2302 4.35897 18.9767 4.38341ZM25.3733 13.8348C25.5198 13.9081 25.6391 14.0486 25.6819 14.1952C25.7063 14.2747 25.7123 15.9731 25.7063 19.8006L25.697 25.2931L24.7288 23.8085L23.7573 22.3239V18.3314C23.7573 15.7502 23.7695 14.2991 23.7878 14.2288C23.8367 14.0578 23.9436 13.9234 24.0903 13.8439C24.2155 13.7798 24.2614 13.7737 24.7409 13.7737C25.1931 13.7737 25.2725 13.7798 25.3733 13.8348Z" fill="white"/>
</svg>
