<svg width="40" height="40" viewBox="0 0 40 40" fill="none" xmlns="http://www.w3.org/2000/svg">
<path d="M9.375 0.5H30.625C35.5265 0.5 39.5 4.47347 39.5 9.375V30.625C39.5 35.5265 35.5265 39.5 30.625 39.5H9.375C4.47347 39.5 0.5 35.5265 0.5 30.625V9.375C0.5 4.47347 4.47347 0.5 9.375 0.5Z" fill="#242938" stroke="white"/>
<g clip-path="url(#clip0_108_162)">
<path d="M26.3626 16.0775C26.2112 15.2895 25.8128 14.5702 25.225 14.024C24.6372 13.4779 23.8907 13.1332 23.0938 13.04L22.7875 13.0025C22.2864 12.9395 21.8255 12.6959 21.4911 12.3173C21.1567 11.9388 20.9719 11.4513 20.9713 10.9462V9.8762C21.5103 9.6524 21.9555 9.2495 22.2319 8.73551C22.5082 8.22152 22.5988 7.62792 22.4882 7.0549C22.3777 6.48189 22.0729 5.96456 21.6252 5.59023C21.1774 5.21591 20.6143 5.00751 20.0308 5.00023C19.4472 4.99294 18.8791 5.18721 18.4221 5.55024C17.9652 5.91328 17.6476 6.42284 17.5228 6.99291C17.398 7.56299 17.4737 8.15866 17.7371 8.67939C18.0006 9.20013 18.4356 9.61402 18.9688 9.8512V10.9437C18.9692 11.9368 19.332 12.8957 19.989 13.6404C20.646 14.3851 21.5522 14.8645 22.5375 14.9887L22.8438 15.0287C23.7988 15.1487 24.2738 15.8537 24.4013 16.4725C24.5263 17.0912 24.3638 17.9262 23.5288 18.41C23.1246 18.6435 22.6748 18.7871 22.21 18.8312L17.6101 19.2637C16.8567 19.3345 16.1275 19.5673 15.4726 19.9462C14.7734 20.3414 14.2185 20.9492 13.8885 21.6814C13.5585 22.4136 13.4706 23.2319 13.6375 24.0175C13.7889 24.8054 14.1873 25.5247 14.7751 26.0709C15.3629 26.617 16.1094 26.9617 16.9063 27.055L17.2126 27.095C17.7135 27.1579 18.1742 27.4013 18.5086 27.7796C18.8429 28.1579 19.0279 28.6451 19.0288 29.15V30.1212C18.4897 30.3464 18.0448 30.7507 17.7692 31.2659C17.4937 31.781 17.4043 32.3755 17.5163 32.949C17.6283 33.5224 17.9347 34.0396 18.3838 34.4133C18.8329 34.787 19.3972 34.9942 19.9814 35C20.5656 35.0059 21.134 34.8099 21.5905 34.4453C22.047 34.0807 22.3636 33.5697 22.487 32.9986C22.6104 32.4275 22.533 31.8314 22.2678 31.3108C22.0025 30.7902 21.5658 30.3771 21.0313 30.1412V29.15C21.0308 28.1566 20.6679 27.1976 20.0106 26.4529C19.3533 25.7081 18.4469 25.2288 17.4613 25.105L17.1563 25.065C16.2013 24.945 15.7251 24.24 15.5988 23.6212C15.4726 23.0025 15.6363 22.1675 16.47 21.6837C16.875 21.4499 17.3257 21.3062 17.7913 21.2625L22.3913 20.8312C23.1447 20.7604 23.8738 20.5276 24.5288 20.1487C25.228 19.7533 25.7828 19.1452 26.1126 18.4127C26.4424 17.6803 26.5299 16.8618 26.3626 16.0762V16.0775ZM23.0463 21.9625C22.8656 21.9941 22.6838 22.0191 22.5013 22.0375L20.5726 22.2212L22.9851 24.87C23.7142 25.6695 24.1181 26.7128 24.1176 27.795H26.1251C26.1258 26.2132 25.535 24.6883 24.4688 23.52L23.0463 21.9625ZM16.7926 18.075C17.018 18.0291 17.2459 17.9957 17.475 17.975L19.2588 17.805L16.8363 15.15C16.1076 14.3502 15.7041 13.3069 15.7051 12.225H13.7038C13.7038 13.8087 14.2913 15.3287 15.3588 16.5L16.7926 18.075Z" fill="white"/>
</g>
<defs>
<clipPath id="clip0_108_162">
<rect width="30" height="30" fill="white" transform="translate(5 5)"/>
</clipPath>
</defs>
</svg>
