<svg width="40" height="40" viewBox="0 0 40 40" fill="none" xmlns="http://www.w3.org/2000/svg">
<g clip-path="url(#clip0_108_162)">
<path d="M30.625 0H9.375C4.19733 0 0 4.19733 0 9.375V30.625C0 35.8027 4.19733 40 9.375 40H30.625C35.8027 40 40 35.8027 40 30.625V9.375C40 4.19733 35.8027 0 30.625 0Z" fill="url(#paint0_linear_108_162)"/>
<path d="M1.79484 20.1686L9.65484 23.3536V25.5831L0.350235 21.272V19.9639L1.79484 20.1686ZM9.65484 17.5525L1.80622 20.7828L0.350235 20.9422V19.6227L9.65484 15.323V17.5525Z" fill="white"/>
<path d="M37.7142 20.6236L29.6267 17.4728V15.3002L39.3408 19.5999V20.9308L37.7142 20.6236ZM29.6267 23.3991L37.737 20.18L39.3408 19.9411V21.2606L29.6267 25.5717V23.3991Z" fill="white"/>
<path fill-rule="evenodd" clip-rule="evenodd" d="M27.512 9.5467C27.467 10.2602 27.1456 11.0052 27.2352 11.6988C27.7966 12.6915 29.0322 12.8499 30.0516 12.918C30.7578 13.0441 30.7489 12.5765 30.7016 12.0512C30.7044 11.2114 30.7072 10.3717 30.7102 9.53194C29.6441 9.53576 28.5777 9.52136 27.512 9.5467ZM19.1056 11.5422C17.37 11.8367 15.6107 12.666 14.1668 13.6645C13.0045 14.569 15.1644 15.4456 15.948 15.5922C17.5245 15.6114 18.9228 14.548 19.9584 13.4442C20.2966 12.98 20.7189 12.2697 20.2941 11.7318C19.9697 11.4505 19.498 11.5187 19.1056 11.5422ZM22.7989 14.0663C21.3719 14.338 20.0141 14.9262 18.8127 15.7452C17.9319 16.0217 17.2059 16.9887 18.2973 17.4733C19.4434 18.3866 20.7717 18.1628 21.8272 17.5462C22.7937 16.9717 23.8378 16.2628 24.285 15.1813C24.7073 13.9965 23.6177 13.9525 22.7989 14.0663ZM26.8472 18.6573C26.5814 19.7673 25.4636 20.272 24.8689 21.1516C24.3827 21.7931 24.6078 22.5489 25.1614 23.0539C25.4309 23.6128 25.9034 23.9252 26.4102 23.4397C27.7152 22.5525 28.0761 20.8244 28.0219 19.327C28.1183 18.7086 27.4087 19.2677 26.8472 18.6573ZM21.8811 20.7422C20.1481 21.0387 18.4148 21.8831 16.9703 22.88C15.8489 23.7833 17.9609 24.6267 18.7509 24.7605C20.3567 24.7628 21.7891 23.728 22.8044 22.5527C23.1575 22.0859 23.5855 21.1795 22.8862 20.8084C22.5736 20.6759 22.2106 20.7148 21.8811 20.7422Z" fill="#B956A6"/>
<path fill-rule="evenodd" clip-rule="evenodd" d="M14.1668 13.6645C12.834 14.1978 11.5482 14.8454 10.2787 15.5234C10.0427 16.4008 10.2319 17.4872 10.1707 18.4492C10.1661 22.4048 10.1684 26.3606 10.1676 30.3163C11.1479 30.3163 12.1281 30.3163 13.1084 30.3163C13.7021 29.7572 14.4459 29.348 15.0908 28.8403C17.5742 27.0592 20.0569 25.2713 22.537 23.4952C22.7195 23.5772 22.6027 22.4216 22.2023 23.2242C21.2538 24.1169 19.9947 24.8511 18.662 24.7794C17.9058 24.5306 16.6867 24.1086 16.6791 23.1819C17.2114 22.5552 15.6969 23.51 15.2825 23.6467C13.9353 24.2936 12.6199 25.0159 11.2699 25.6508C11.5944 25.3023 12.2014 24.9775 12.6316 24.6319C15.7055 22.4253 18.7786 20.2102 21.8598 18.0053C22.4525 17.5892 23.025 17.1353 23.6359 16.7464C23.6917 16.9619 23.7964 15.7163 23.342 16.4831C22.4158 17.4013 21.1664 18.0847 19.8488 18.0941C19.1077 17.8691 17.5292 17.3311 17.8806 16.3742C18.052 16.0384 16.2888 17.09 17.0678 16.497C17.897 15.8911 18.7328 15.2959 19.5684 14.6963C19.9905 14.6645 19.9006 13.097 19.3272 14.1081C18.3639 14.9545 17.0983 15.7289 15.7716 15.5454C15.0263 15.3308 14.132 14.9153 13.8612 14.1359C13.7714 13.9487 14.3629 13.6571 14.1668 13.6645ZM19.6884 14.6322C19.8223 14.555 19.6145 14.8436 19.6884 14.6322Z" fill="#FCCC44"/>
<path fill-rule="evenodd" clip-rule="evenodd" d="M28.1092 12.6171C27.6931 14.6041 27.2383 16.6836 26.8472 18.6574C27.9709 20.0736 28.0798 17.7627 28.2764 17.1092C28.5941 15.7434 28.9703 14.7121 29.0102 13.2981C29.0945 12.8156 28.5273 12.5232 28.1092 12.6171ZM29.3984 14.1752C29.4497 14.2135 29.3633 14.379 29.3984 14.1752ZM28.0875 18.6306C28.1416 18.747 28.1416 18.5141 28.0875 18.6306Z" fill="#62777F"/>
<path fill-rule="evenodd" clip-rule="evenodd" d="M28.8462 12.8421C29.1969 14.8113 28.0355 17.2034 27.6556 19.06C28.5181 18.4253 29.1845 15.5456 29.3548 14.4185C29.3987 14.2895 29.4528 13.9651 29.4645 13.9535C29.5187 13.6798 30.0239 13.2162 30.0516 12.918C30.3456 12.7104 28.6062 12.677 28.8462 12.8421ZM28.1311 18.6306C28.0769 18.747 28.0769 18.5141 28.1311 18.6306Z" fill="#4E5E67"/>
<path fill-rule="evenodd" clip-rule="evenodd" d="M14.1959 13.6973C13.7097 14.1842 13.8921 14.0653 14.2541 13.6604L14.1959 13.6973ZM19.4553 13.9384C18.892 14.7849 16.8608 15.4927 16.605 15.5475C17.8269 15.3187 18.9658 14.5586 19.7672 13.6681C19.6398 13.7248 19.5642 13.8582 19.4553 13.9384ZM13.8618 14.2133C14.1654 14.9433 15.2694 15.4284 15.8058 15.5415C15.0734 15.3056 14.2113 14.8871 13.8618 14.2133ZM19.6447 14.6354C19.4914 14.8164 18.9455 15.0872 18.6577 15.3526C18.0403 15.808 17.4017 16.2311 16.7914 16.6978C17.18 16.6811 18.3187 15.8305 17.735 16.6936C18.2297 17.545 19.3067 18.137 20.2887 18.083C21.5856 17.8794 22.7816 17.1624 23.6412 16.1652C22.5977 17.1978 21.218 18.1697 19.6912 18.0358C18.9523 17.8652 16.9333 16.8222 18.2839 16.0911C18.7602 15.6994 19.5812 15.4942 19.6742 14.8058C19.6547 14.7199 19.8148 14.636 19.6447 14.6354ZM15.948 15.5922C16.4394 15.6564 16.4394 15.528 15.948 15.5922ZM23.6047 16.768C21.6548 18.1264 19.7333 19.538 17.8003 20.9208C15.6097 22.4886 13.4285 24.0622 11.2384 25.6288C12.0618 25.3511 12.8868 24.8089 13.7049 24.4344C14.8313 23.8384 16.0192 23.3677 17.0733 22.6438C19.1573 21.4169 21.3614 20.248 22.9644 18.3709C23.3142 17.9606 23.665 17.3002 23.6806 16.8559C23.6302 16.8702 23.6684 16.6783 23.6047 16.768ZM16.9703 22.88C16.6195 23.2764 16.477 23.5597 16.8411 23.0556C16.8347 23.1141 17.1366 22.7427 16.9703 22.88ZM22.3072 23.0697C21.3831 24.0441 20.0164 24.7469 18.7341 24.7942C20.2166 24.805 21.5541 23.925 22.5584 22.8869C22.4925 22.8072 22.3589 23.0725 22.3072 23.0697ZM22.5895 23.3759C19.485 25.6359 16.2733 27.9802 13.1582 30.232C13.649 30.3859 14.7175 30.4581 15.205 29.8299C16.2427 29.1139 17.4091 28.5875 18.45 27.8619C19.9573 26.8838 21.5712 25.8147 22.4273 24.1708C22.4681 23.9503 22.7711 23.5538 22.5895 23.3759ZM16.6812 23.5194C16.8253 24.1275 18.6262 24.8255 18.4309 24.6919C17.7669 24.4591 17.1081 24.0963 16.6812 23.5194Z" fill="#DC9624"/>
</g>
<g clip-path="url(#clip1_108_162)">
<path d="M9.375 0.5H30.625C35.5265 0.5 39.5 4.47347 39.5 9.375V30.625C39.5 35.5265 35.5265 39.5 30.625 39.5H9.375C4.47347 39.5 0.5 35.5265 0.5 30.625V9.375C0.5 4.47347 4.47347 0.5 9.375 0.5Z" fill="url(#paint1_linear_108_162)" stroke="white"/>
<path d="M1.79484 20.1686L9.65484 23.3536V25.5831L0.350235 21.272V19.9639L1.79484 20.1686ZM9.65484 17.5525L1.80622 20.7828L0.350235 20.9422V19.6227L9.65484 15.323V17.5525Z" fill="white"/>
<path d="M37.7142 20.6236L29.6267 17.4728V15.3002L39.3408 19.5999V20.9308L37.7142 20.6236ZM29.6267 23.3991L37.737 20.18L39.3408 19.9411V21.2606L29.6267 25.5717V23.3991Z" fill="white"/>
<path fill-rule="evenodd" clip-rule="evenodd" d="M27.512 9.5467C27.467 10.2602 27.1456 11.0052 27.2352 11.6988C27.7966 12.6915 29.0322 12.8499 30.0516 12.918C30.7578 13.0441 30.7489 12.5765 30.7016 12.0512C30.7044 11.2114 30.7072 10.3717 30.7102 9.53194C29.6441 9.53576 28.5777 9.52136 27.512 9.5467ZM19.1056 11.5422C17.37 11.8367 15.6107 12.666 14.1668 13.6645C13.0045 14.569 15.1644 15.4456 15.948 15.5922C17.5245 15.6114 18.9228 14.548 19.9584 13.4442C20.2966 12.98 20.7189 12.2697 20.2941 11.7318C19.9697 11.4505 19.498 11.5187 19.1056 11.5422ZM22.7989 14.0663C21.3719 14.338 20.0141 14.9262 18.8127 15.7452C17.9319 16.0217 17.2059 16.9887 18.2973 17.4733C19.4434 18.3866 20.7717 18.1628 21.8272 17.5462C22.7937 16.9717 23.8378 16.2628 24.285 15.1813C24.7073 13.9965 23.6177 13.9525 22.7989 14.0663ZM26.8472 18.6573C26.5814 19.7673 25.4636 20.272 24.8689 21.1516C24.3827 21.7931 24.6078 22.5489 25.1614 23.0539C25.4309 23.6128 25.9034 23.9252 26.4102 23.4397C27.7152 22.5525 28.0761 20.8244 28.0219 19.327C28.1183 18.7086 27.4087 19.2677 26.8472 18.6573ZM21.8811 20.7422C20.1481 21.0387 18.4148 21.8831 16.9703 22.88C15.8489 23.7833 17.9609 24.6267 18.7509 24.7605C20.3567 24.7628 21.7891 23.728 22.8044 22.5527C23.1575 22.0859 23.5855 21.1795 22.8862 20.8084C22.5736 20.6759 22.2106 20.7148 21.8811 20.7422Z" fill="#B956A6"/>
<path fill-rule="evenodd" clip-rule="evenodd" d="M14.1668 13.6645C12.834 14.1978 11.5482 14.8454 10.2787 15.5234C10.0427 16.4008 10.2319 17.4872 10.1707 18.4492C10.1661 22.4048 10.1684 26.3606 10.1676 30.3163C11.1479 30.3163 12.1281 30.3163 13.1084 30.3163C13.7021 29.7572 14.4459 29.348 15.0908 28.8403C17.5742 27.0592 20.0569 25.2713 22.537 23.4952C22.7195 23.5772 22.6027 22.4216 22.2023 23.2242C21.2538 24.1169 19.9947 24.8511 18.662 24.7794C17.9058 24.5306 16.6867 24.1086 16.6791 23.1819C17.2114 22.5552 15.6969 23.51 15.2825 23.6467C13.9353 24.2936 12.6199 25.0159 11.2699 25.6508C11.5944 25.3023 12.2014 24.9775 12.6316 24.6319C15.7055 22.4253 18.7786 20.2102 21.8598 18.0053C22.4525 17.5892 23.025 17.1353 23.6359 16.7464C23.6917 16.9619 23.7964 15.7163 23.342 16.4831C22.4158 17.4013 21.1664 18.0847 19.8488 18.0941C19.1077 17.8691 17.5292 17.3311 17.8806 16.3742C18.052 16.0384 16.2888 17.09 17.0678 16.497C17.897 15.8911 18.7328 15.2959 19.5684 14.6963C19.9905 14.6645 19.9006 13.097 19.3272 14.1081C18.3639 14.9545 17.0983 15.7289 15.7716 15.5454C15.0263 15.3308 14.132 14.9153 13.8612 14.1359C13.7714 13.9487 14.3629 13.6571 14.1668 13.6645ZM19.6884 14.6322C19.8223 14.555 19.6145 14.8436 19.6884 14.6322Z" fill="#FCCC44"/>
<path fill-rule="evenodd" clip-rule="evenodd" d="M28.1092 12.6171C27.6931 14.6041 27.2383 16.6836 26.8472 18.6574C27.9709 20.0736 28.0798 17.7627 28.2764 17.1092C28.5941 15.7434 28.9703 14.7121 29.0102 13.2981C29.0945 12.8156 28.5273 12.5232 28.1092 12.6171ZM29.3984 14.1752C29.4497 14.2135 29.3633 14.379 29.3984 14.1752ZM28.0875 18.6306C28.1416 18.747 28.1416 18.5141 28.0875 18.6306Z" fill="#62777F"/>
<path fill-rule="evenodd" clip-rule="evenodd" d="M28.8462 12.8421C29.1969 14.8113 28.0355 17.2034 27.6556 19.06C28.5181 18.4253 29.1845 15.5456 29.3548 14.4185C29.3987 14.2895 29.4528 13.9651 29.4645 13.9535C29.5187 13.6798 30.0239 13.2162 30.0516 12.918C30.3456 12.7104 28.6062 12.677 28.8462 12.8421ZM28.1311 18.6306C28.0769 18.747 28.0769 18.5141 28.1311 18.6306Z" fill="#4E5E67"/>
<path fill-rule="evenodd" clip-rule="evenodd" d="M14.1959 13.6973C13.7097 14.1842 13.8921 14.0653 14.2541 13.6604L14.1959 13.6973ZM19.4553 13.9384C18.892 14.7849 16.8608 15.4927 16.605 15.5475C17.8269 15.3187 18.9658 14.5586 19.7672 13.6681C19.6398 13.7248 19.5642 13.8582 19.4553 13.9384ZM13.8618 14.2133C14.1654 14.9433 15.2694 15.4284 15.8058 15.5415C15.0734 15.3056 14.2113 14.8871 13.8618 14.2133ZM19.6447 14.6354C19.4914 14.8164 18.9455 15.0872 18.6577 15.3526C18.0403 15.808 17.4017 16.2311 16.7914 16.6978C17.18 16.6811 18.3187 15.8305 17.735 16.6936C18.2297 17.545 19.3067 18.137 20.2887 18.083C21.5856 17.8794 22.7816 17.1624 23.6412 16.1652C22.5977 17.1978 21.218 18.1697 19.6912 18.0358C18.9523 17.8652 16.9333 16.8222 18.2839 16.0911C18.7602 15.6994 19.5812 15.4942 19.6742 14.8058C19.6547 14.7199 19.8148 14.636 19.6447 14.6354ZM15.948 15.5922C16.4394 15.6564 16.4394 15.528 15.948 15.5922ZM23.6047 16.768C21.6548 18.1264 19.7333 19.538 17.8003 20.9208C15.6097 22.4886 13.4285 24.0622 11.2384 25.6288C12.0618 25.3511 12.8868 24.8089 13.7049 24.4344C14.8313 23.8384 16.0192 23.3677 17.0733 22.6438C19.1573 21.4169 21.3614 20.248 22.9644 18.3709C23.3142 17.9606 23.665 17.3002 23.6806 16.8559C23.6302 16.8702 23.6684 16.6783 23.6047 16.768ZM16.9703 22.88C16.6195 23.2764 16.477 23.5597 16.8411 23.0556C16.8347 23.1141 17.1366 22.7427 16.9703 22.88ZM22.3072 23.0697C21.3831 24.0441 20.0164 24.7469 18.7341 24.7942C20.2166 24.805 21.5541 23.925 22.5584 22.8869C22.4925 22.8072 22.3589 23.0725 22.3072 23.0697ZM22.5895 23.3759C19.485 25.6359 16.2733 27.9802 13.1582 30.232C13.649 30.3859 14.7175 30.4581 15.205 29.8299C16.2427 29.1139 17.4091 28.5875 18.45 27.8619C19.9573 26.8838 21.5712 25.8147 22.4273 24.1708C22.4681 23.9503 22.7711 23.5538 22.5895 23.3759ZM16.6812 23.5194C16.8253 24.1275 18.6262 24.8255 18.4309 24.6919C17.7669 24.4591 17.1081 24.0963 16.6812 23.5194Z" fill="#DC9624"/>
</g>
<defs>
<linearGradient id="paint0_linear_108_162" x1="0" y1="40" x2="40" y2="0" gradientUnits="userSpaceOnUse">
<stop stop-color="#DB7093"/>
<stop offset="1" stop-color="#F3B661"/>
</linearGradient>
<linearGradient id="paint1_linear_108_162" x1="0" y1="40" x2="40" y2="0" gradientUnits="userSpaceOnUse">
<stop stop-color="#DB7093"/>
<stop offset="1" stop-color="#F3B661"/>
</linearGradient>
<clipPath id="clip0_108_162">
<rect width="40" height="40" fill="white"/>
</clipPath>
<clipPath id="clip1_108_162">
<rect width="40" height="40" fill="white"/>
</clipPath>
</defs>
</svg>
