<svg width="40" height="40" viewBox="0 0 40 40" fill="none" xmlns="http://www.w3.org/2000/svg">
<g clip-path="url(#clip0_262_96)">
<path d="M9.375 0.5H30.625C35.5265 0.5 39.5 4.47347 39.5 9.375V30.625C39.5 35.5265 35.5265 39.5 30.625 39.5H9.375C4.47347 39.5 0.5 35.5265 0.5 30.625V9.375C0.5 4.47347 4.47347 0.5 9.375 0.5Z" fill="#242938" stroke="white"/>
<path d="M35.625 28.5839C35.1702 28.7563 34.668 28.7558 34.2133 28.583C33.7587 28.41 33.3831 28.0766 33.1577 27.6456C31.7416 25.5258 30.1778 23.5016 28.6748 21.4339L28.0231 20.5652C26.2334 22.963 24.4437 25.2652 22.8105 27.6544C22.5977 28.0663 22.2425 28.3867 21.8109 28.5561C21.3794 28.7256 20.9009 28.7324 20.4648 28.5753L27.1805 19.5661L20.9339 11.4256C21.3836 11.2632 21.8755 11.261 22.3266 11.4193C22.7777 11.5775 23.1603 11.8866 23.41 12.2944C24.8608 14.4142 26.4681 16.4384 28.0666 18.5844C29.6739 16.4558 31.2637 14.4229 32.7494 12.3204C32.9633 11.9152 33.3188 11.6028 33.7481 11.4426C34.1773 11.2824 34.6506 11.2857 35.0777 11.4516L32.6537 14.6661C31.5678 16.0995 30.4992 17.5417 29.3698 18.9405C29.2787 19.022 29.2059 19.1217 29.1561 19.2333C29.1062 19.3449 29.0805 19.4656 29.0805 19.5878C29.0805 19.7099 29.1062 19.8306 29.1561 19.9422C29.2059 20.0538 29.2787 20.1534 29.3698 20.235C31.4462 22.9891 33.5052 25.7517 35.625 28.5839Z" fill="white"/>
<path d="M4.375 19.4531C4.55744 18.5844 4.67039 17.6373 4.92233 16.7513C6.42531 11.4083 12.5502 9.18419 16.7638 12.4943C19.2311 14.4316 19.848 17.177 19.7264 20.2698H5.82586C5.59998 25.7953 9.58767 29.1314 14.6874 27.4286C15.5147 27.1327 16.2552 26.6355 16.8422 25.9817C17.4292 25.328 17.8441 24.5383 18.0495 23.6841C18.3189 22.8153 18.7533 22.6677 19.5786 22.9195C19.4427 23.9772 19.0688 24.9903 18.4848 25.8827C17.9011 26.775 17.1225 27.5233 16.2078 28.0714C14.6965 28.898 12.9625 29.2253 11.2539 29.0069C9.54522 28.7884 7.94942 28.0353 6.69464 26.8552C5.4533 25.4594 4.7027 23.6959 4.55744 21.8336C4.55744 21.5383 4.4445 21.2428 4.38369 20.9648C4.37789 20.4494 4.375 19.9455 4.375 19.4531ZM5.84323 19.0795H18.4145C18.3362 15.0745 15.8081 12.2336 12.4373 12.2075C8.68414 12.1554 5.99962 14.9355 5.83455 19.0622L5.84323 19.0795Z" fill="white"/>
</g>
<defs>
<clipPath id="clip0_262_96">
<rect width="40" height="40" fill="white"/>
</clipPath>
</defs>
</svg>
