<svg width="40" height="40" viewBox="0 0 40 40" fill="none" xmlns="http://www.w3.org/2000/svg">
<g clip-path="url(#clip0_262_105)">
<path d="M9.375 0.5H30.625C35.5265 0.5 39.5 4.47347 39.5 9.375V30.625C39.5 35.5265 35.5265 39.5 30.625 39.5H9.375C4.47347 39.5 0.5 35.5265 0.5 30.625V9.375C0.5 4.47347 4.47347 0.5 9.375 0.5Z" fill="#242938" stroke="white"/>
<mask id="mask0_262_105" style="mask-type:luminance" maskUnits="userSpaceOnUse" x="5" y="5" width="30" height="30">
<path d="M34.0625 5.9375H5.9375V34.0625H34.0625V5.9375Z" fill="white"/>
</mask>
<g mask="url(#mask0_262_105)">
<path fill-rule="evenodd" clip-rule="evenodd" d="M31.8439 27.8453C30.3142 27.8028 29.1275 27.9595 28.133 28.378C27.8466 28.493 27.387 28.493 27.3492 28.8534C27.5023 29.0047 27.5208 29.2522 27.655 29.4619C27.8842 29.8423 28.2864 30.3548 28.6495 30.6208L29.8736 31.4955C30.6195 31.9512 31.4611 32.2176 32.1878 32.6739C32.6087 32.9401 33.0294 33.2823 33.4503 33.5678C33.6647 33.7198 33.7945 33.9675 34.0625 34.062V34.0045C33.9287 33.834 33.8902 33.587 33.7569 33.3961L33.1823 32.8451C32.6281 32.1039 31.9391 31.457 31.1931 30.9253C30.5809 30.507 29.2425 29.9369 28.9937 29.2339L28.9561 29.1912C29.3762 29.1487 29.8736 29.0008 30.2756 28.8867C30.9264 28.7162 31.5189 28.7537 32.1878 28.5828L33.1066 28.3165V28.1461C32.7622 27.804 32.5136 27.3476 32.1505 27.0248C31.1752 26.1884 30.1033 25.3708 28.9937 24.6865C28.4009 24.3065 27.6356 24.0589 27.0045 23.7364C26.7744 23.6222 26.3923 23.5651 26.2586 23.3751C25.9134 22.9576 25.7227 22.4058 25.4741 21.9112L23.9058 18.6037C23.5616 17.8623 23.3506 17.1209 22.9305 16.4367C20.96 13.205 18.8173 11.2473 15.5273 9.32705C14.82 8.92783 13.9784 8.75613 13.0836 8.54736L11.6492 8.47067C11.3426 8.33774 11.0369 7.97644 10.769 7.80516C9.67877 7.12091 6.8668 5.63822 6.06295 7.59213C5.54634 8.82771 6.82822 10.0441 7.26336 10.6717C7.58919 11.1088 8.00933 11.6031 8.23956 12.0973C8.36817 12.4203 8.41105 12.7628 8.54523 13.1049C8.85091 13.9413 9.13816 14.8731 9.53986 15.6528C9.75422 16.052 9.9793 16.4708 10.2472 16.8317C10.4003 17.0447 10.6682 17.1359 10.7253 17.478C10.4573 17.8584 10.4389 18.4281 10.2858 18.904C9.59687 21.0522 9.86483 23.7134 10.8402 25.295C11.1467 25.77 11.8691 26.8159 12.8491 26.4164C13.71 26.0742 13.5179 24.9908 13.7666 24.0401C13.8245 23.8123 13.7859 23.6601 13.9004 23.5076V23.5503L14.6849 25.128C15.2778 26.0594 16.3111 27.029 17.1714 27.6758C17.6302 28.018 17.9937 28.6076 18.5673 28.8164V28.7589H18.5297C18.4147 28.5884 18.2423 28.5117 18.0894 28.3787C17.7452 28.0367 17.3627 27.6183 17.0947 27.2383C16.2917 26.1739 15.5844 24.995 14.9529 23.7786C14.6463 23.1894 14.3784 22.543 14.1306 21.9537C14.0148 21.7255 14.0148 21.3828 13.824 21.2695C13.5368 21.687 13.1167 22.0492 12.9053 22.5622C12.5418 23.3794 12.504 24.387 12.3703 25.4326C12.2931 25.4517 12.3274 25.4326 12.2931 25.4751C11.6817 25.3236 11.4708 24.6955 11.2415 24.1637C10.6678 22.814 10.5718 20.647 11.0691 19.0881C11.2029 18.6889 11.7773 17.4342 11.548 17.054C11.4322 16.6928 11.0507 16.484 10.8397 16.1986C10.5911 15.8373 10.324 15.3814 10.1516 14.9822C9.69291 13.917 9.46355 12.7389 8.96581 11.6742C8.73558 11.18 8.33431 10.6666 8.00891 10.2107C7.64536 9.6973 7.2445 9.336 6.95727 8.728C6.86166 8.51497 6.72789 8.17669 6.88095 7.94831C6.91867 7.79622 6.99584 7.73528 7.14805 7.70121C7.3967 7.48817 8.10494 7.7583 8.35359 7.87163C9.06098 8.15708 9.65389 8.42296 10.2468 8.82174C10.5148 9.01177 10.802 9.37306 11.1463 9.4685H11.5484C12.1606 9.60144 12.8487 9.51111 13.4219 9.68153C14.4358 10.0053 15.3537 10.48 16.1769 10.9938C18.6823 12.5715 20.7488 14.8147 22.1445 17.4955C22.3739 17.9326 22.4695 18.3319 22.6805 18.7881C23.0827 19.72 23.58 20.6701 23.9808 21.5831C24.383 22.4765 24.7653 23.3897 25.3391 24.1309C25.6262 24.5301 26.7734 24.7389 27.2897 24.9481C27.6725 25.1186 28.265 25.272 28.6102 25.4808C29.26 25.88 29.9105 26.3362 30.5222 26.7734C30.8278 27.0009 31.7848 27.4764 31.8417 27.8556L31.8439 27.8453ZM12.3372 11.3261C12.073 11.3238 11.8095 11.3558 11.5535 11.4211V11.4638H11.5913C11.7443 11.768 12.0123 11.9771 12.2035 12.2434L12.6438 13.1561L12.6815 13.1135C12.9495 12.9234 13.0836 12.6192 13.0836 12.1633C12.9687 12.0304 12.9499 11.897 12.8543 11.7641C12.7394 11.5741 12.4907 11.4787 12.3372 11.327V11.3261Z" fill="white"/>
</g>
</g>
<defs>
<clipPath id="clip0_262_105">
<rect width="40" height="40" fill="white"/>
</clipPath>
</defs>
</svg>
