
<svg width="40" height="40" viewBox="0 0 40 40" fill="none" xmlns="http://www.w3.org/2000/svg">
<path d="M9.375 0.5H30.625C35.5265 0.5 39.5 4.47347 39.5 9.375V30.625C39.5 35.5265 35.5265 39.5 30.625 39.5H9.375C4.47347 39.5 0.5 35.5265 0.5 30.625V9.375C0.5 4.47347 4.47347 0.5 9.375 0.5Z" fill="#242938" stroke="white"/>
<path d="M10.2107 9.52263C11.1904 10.3186 11.558 10.2578 13.3977 10.1351L30.7424 9.09364C31.1101 9.09364 30.8042 8.72666 30.6817 8.66566L27.801 6.58326C27.2491 6.15476 26.5137 5.66402 25.1044 5.78677L8.30965 7.01173C7.69717 7.07246 7.57481 7.37869 7.81876 7.62418L10.2107 9.52263ZM11.252 13.5647V31.8143C11.252 32.795 11.7421 33.162 12.8453 33.1013L31.9069 31.9984C33.0106 31.9377 33.1336 31.2629 33.1336 30.4663V12.3393C33.1336 11.5438 32.8277 11.1148 32.1519 11.1761L12.2323 12.3393C11.4972 12.401 11.252 12.7687 11.252 13.5647ZM30.0697 14.5437C30.1919 15.0954 30.0697 15.6466 29.5169 15.7086L28.5985 15.8916V29.3645C27.801 29.7931 27.0657 30.0381 26.453 30.0381C25.4719 30.0381 25.2262 29.7318 24.4914 28.8136L18.4838 19.3825V28.5075L20.3848 28.9363C20.3848 28.9363 20.3848 30.0381 18.8511 30.0381L14.623 30.2834C14.5001 30.0381 14.623 29.4263 15.0518 29.3036L16.1552 28.9979V16.9331L14.6232 16.8103C14.5004 16.2586 14.8064 15.4632 15.6651 15.4014L20.2009 15.0957L26.453 24.6495V16.1978L24.859 16.0149C24.7366 15.3404 25.2262 14.8507 25.8392 14.7899L30.0697 14.5437ZM6.89952 5.35828L24.3688 4.07184C26.5141 3.88784 27.066 4.01109 28.4144 4.99055L33.9906 8.90989C34.9109 9.58388 35.2175 9.76737 35.2175 10.5021V31.9984C35.2175 33.3454 34.7268 34.1422 33.0108 34.264L12.7239 35.4893C11.4359 35.5506 10.8229 35.367 10.1484 34.509L6.04183 29.1811C5.30599 28.2004 5 27.4666 5 26.6081V7.50096C5 6.39925 5.49089 5.48029 6.89952 5.35828Z" fill="white"/>
</svg>
