<svg width="40" height="40" viewBox="0 0 40 40" fill="none" xmlns="http://www.w3.org/2000/svg">
<g clip-path="url(#clip0_441_234)">
<path d="M9.375 0.5H30.625C35.5265 0.5 39.5 4.47347 39.5 9.375V30.625C39.5 35.5265 35.5265 39.5 30.625 39.5H9.375C4.47347 39.5 0.5 35.5265 0.5 30.625V9.375C0.5 4.47347 4.47347 0.5 9.375 0.5Z" fill="#242938" stroke="white"/>
<path d="M5.26809 15.6575C5.26809 15.6575 4.52834 15.1242 5.41604 14.4122L7.48428 12.5628C7.48428 12.5628 8.07607 11.9402 8.70179 12.4827L27.7875 26.9325V33.8616C27.7875 33.8616 27.7783 34.9497 26.3819 34.8294L5.26809 15.6575Z" fill="#2489CA"/>
<path d="M10.1874 20.1238L5.26806 24.5961C5.26806 24.5961 4.76256 24.9722 5.26806 25.6442L7.55206 27.7216C7.55206 27.7216 8.09455 28.3042 8.89594 27.6414L14.1112 23.6869L10.1874 20.1238Z" fill="#1070B3"/>
<path d="M18.824 20.1608L27.8461 13.2717L27.7875 6.3797C27.7875 6.3797 27.4022 4.87553 26.1169 5.65843L14.1112 16.5852L18.824 20.1608Z" fill="#0877B9"/>
<path d="M26.3819 34.8387C26.9059 35.375 27.5409 35.1993 27.5409 35.1993L34.5717 31.7348C35.4717 31.1214 35.3453 30.3601 35.3453 30.3601V9.67156C35.3453 8.76227 34.4144 8.44788 34.4144 8.44788L28.3208 5.51043C26.9892 4.68746 26.1169 5.65838 26.1169 5.65838C26.1169 5.65838 27.2388 4.85082 27.7875 6.37965V33.7351C27.7875 33.9232 27.7474 34.1081 27.6674 34.2746C27.507 34.5982 27.1588 34.9003 26.3234 34.7739L26.3819 34.8387Z" fill="#3C99D4"/>
</g>
<defs>
<clipPath id="clip0_441_234">
<rect width="40" height="40" fill="white"/>
</clipPath>
</defs>
</svg>
