<svg width="40" height="40" viewBox="0 0 40 40" fill="none" xmlns="http://www.w3.org/2000/svg">
<g clip-path="url(#clip0_262_132)">
<path d="M9.375 0.5H30.625C35.5265 0.5 39.5 4.47347 39.5 9.375V30.625C39.5 35.5265 35.5265 39.5 30.625 39.5H9.375C4.47347 39.5 0.5 35.5265 0.5 30.625V9.375C0.5 4.47347 4.47347 0.5 9.375 0.5Z" fill="#242938" stroke="white"/>
<path d="M13.2414 17.4939C13.2414 17.8742 13.2825 18.1825 13.3544 18.4087C13.4367 18.6348 13.5395 18.8816 13.6834 19.1489C13.7348 19.2311 13.7553 19.3133 13.7553 19.3853C13.7553 19.4881 13.6937 19.5909 13.56 19.6936L12.9124 20.1255C12.8199 20.187 12.7274 20.218 12.6452 20.218C12.5424 20.218 12.4396 20.1666 12.3368 20.0741C12.1928 19.9198 12.0695 19.7553 11.9667 19.5909C11.8639 19.4161 11.7611 19.2208 11.648 18.9844C10.8462 19.9302 9.83881 20.403 8.62583 20.403C7.76234 20.403 7.07361 20.1562 6.56991 19.6628C6.0662 19.1694 5.80922 18.5116 5.80922 17.6892C5.80922 16.8153 6.11759 16.1061 6.74466 15.5715C7.37172 15.037 8.20436 14.7697 9.26316 14.7697C9.61267 14.7697 9.97245 14.8006 10.3528 14.852C10.7331 14.9034 11.1238 14.9856 11.535 15.0781V14.3277C11.535 13.5465 11.3705 13.0016 11.0518 12.683C10.7229 12.3643 10.1678 12.2101 9.37623 12.2101C9.01645 12.2101 8.64638 12.2512 8.26603 12.3437C7.88569 12.4363 7.51563 12.5493 7.15584 12.6932C6.99136 12.7652 6.86802 12.8063 6.79605 12.8269C6.72409 12.8475 6.6727 12.8577 6.63158 12.8577C6.48767 12.8577 6.4157 12.7549 6.4157 12.5391V12.0354C6.4157 11.8709 6.43627 11.7475 6.48767 11.6756C6.53906 11.6036 6.63158 11.5317 6.7755 11.4597C7.13528 11.2747 7.56703 11.1205 8.07072 10.9971C8.57442 10.8635 9.10897 10.8018 9.67434 10.8018C10.8976 10.8018 11.7919 11.0794 12.3676 11.6345C12.933 12.1896 13.2208 13.0325 13.2208 14.1632V17.4939H13.2414ZM9.06784 19.0564C9.40708 19.0564 9.75658 18.9947 10.1266 18.8712C10.4967 18.748 10.8257 18.5217 11.1032 18.2134C11.2677 18.0181 11.391 17.8022 11.4527 17.5555C11.5144 17.3087 11.5555 17.0106 11.5555 16.6613V16.2294C11.2574 16.1575 10.9387 16.0958 10.6098 16.0547C10.2808 16.0136 9.96217 15.993 9.6435 15.993C8.95477 15.993 8.45106 16.1267 8.11184 16.4042C7.77261 16.6817 7.60814 17.0723 7.60814 17.5864C7.60814 18.0695 7.7315 18.4292 7.98848 18.6759C8.2352 18.933 8.59498 19.0564 9.06784 19.0564ZM17.3223 20.1666C17.1373 20.1666 17.0139 20.1356 16.9317 20.0637C16.8495 20.002 16.7775 19.8581 16.7159 19.6628L14.3002 11.7167C14.2385 11.5111 14.2077 11.3775 14.2077 11.3055C14.2077 11.141 14.2899 11.0485 14.4544 11.0485H15.4618C15.657 11.0485 15.7908 11.0794 15.8627 11.1513C15.9448 11.213 16.0066 11.3569 16.0683 11.5522L17.7952 18.3573L19.3989 11.5522C19.4503 11.3466 19.5119 11.213 19.5942 11.1513C19.6764 11.0896 19.8203 11.0485 20.0053 11.0485H20.8277C21.023 11.0485 21.1567 11.0794 21.2389 11.1513C21.3211 11.213 21.3931 11.3569 21.4342 11.5522L23.0584 18.4395L24.8367 11.5522C24.8984 11.3466 24.9705 11.213 25.0423 11.1513C25.1245 11.0896 25.2583 11.0485 25.4433 11.0485H26.3992C26.5638 11.0485 26.6563 11.1308 26.6563 11.3055C26.6563 11.3569 26.6459 11.4083 26.6356 11.47C26.6255 11.5317 26.6048 11.6139 26.5637 11.727L24.0864 19.6731C24.0247 19.8787 23.9527 20.0123 23.8705 20.0741C23.7883 20.1356 23.6545 20.1769 23.4798 20.1769H22.5958C22.4005 20.1769 22.2669 20.1459 22.1847 20.0741C22.1023 20.002 22.0305 19.8684 21.9894 19.6628L20.3959 13.0325L18.813 19.6525C18.7616 19.8581 18.6998 19.9917 18.6177 20.0637C18.5353 20.1356 18.3914 20.1666 18.2064 20.1666H17.3223ZM30.5317 20.4441C29.9972 20.4441 29.4627 20.3823 28.9486 20.2591C28.4347 20.1356 28.0338 20.002 27.7664 19.8478C27.602 19.7553 27.4889 19.6525 27.4478 19.56C27.4067 19.4675 27.3861 19.3647 27.3861 19.2722V18.748C27.3861 18.532 27.4683 18.4292 27.6225 18.4292C27.6842 18.4292 27.7459 18.4395 27.8075 18.4602C27.8692 18.4806 27.9617 18.5217 28.0645 18.563C28.4141 18.717 28.7944 18.8405 29.1953 18.9227C29.6066 19.005 30.0073 19.0461 30.4186 19.0461C31.0663 19.0461 31.5698 18.933 31.9194 18.7069C32.2689 18.4806 32.4539 18.1517 32.4539 17.7303C32.4539 17.4425 32.3614 17.2059 32.1764 17.0106C31.9914 16.8153 31.6419 16.6406 31.1381 16.4761L29.6477 16.0136C28.8972 15.7772 28.342 15.4276 28.0028 14.965C27.6636 14.5127 27.4889 14.009 27.4889 13.4745C27.4889 13.0428 27.5814 12.6624 27.7664 12.3335C27.9514 12.0045 28.1981 11.7167 28.5066 11.4905C28.815 11.2541 29.1645 11.0794 29.5756 10.956C29.9869 10.8326 30.4186 10.7812 30.8709 10.7812C31.097 10.7812 31.3334 10.7915 31.5597 10.8224C31.7961 10.8532 32.0119 10.8943 32.2278 10.9354C32.4334 10.9868 32.6287 11.0382 32.8137 11.0999C32.9987 11.1616 33.1427 11.2233 33.2455 11.285C33.3894 11.3672 33.4922 11.4494 33.5539 11.5419C33.6155 11.6242 33.6464 11.7372 33.6464 11.8812V12.3643C33.6464 12.5802 33.5642 12.6932 33.41 12.6932C33.3277 12.6932 33.1941 12.6521 33.0194 12.5699C32.4334 12.3026 31.7755 12.169 31.0456 12.169C30.4597 12.169 29.9972 12.2615 29.6784 12.4568C29.3598 12.6521 29.1953 12.9503 29.1953 13.3717C29.1953 13.6595 29.2981 13.9062 29.5038 14.1016C29.7092 14.2969 30.0897 14.4922 30.6345 14.6669L32.0942 15.1295C32.8342 15.366 33.3689 15.6948 33.6875 16.1164C34.0061 16.5378 34.1603 17.0209 34.1603 17.5555C34.1603 17.9975 34.0678 18.3984 33.8931 18.748C33.7081 19.0975 33.4614 19.4058 33.1427 19.6525C32.8241 19.9095 32.4436 20.0945 32.0017 20.2283C31.5391 20.3722 31.0559 20.4441 30.5317 20.4441Z" fill="white"/>
<path fill-rule="evenodd" clip-rule="evenodd" d="M32.4745 25.44C29.0925 27.938 24.1789 29.2641 19.9539 29.2641C14.0329 29.2641 8.69778 27.0744 4.66817 23.4355C4.34951 23.1477 4.63734 22.757 5.01768 22.9831C9.37623 25.5119 14.7525 27.0436 20.3137 27.0436C24.0658 27.0436 28.188 26.2624 31.9811 24.6588C32.5464 24.4017 33.0295 25.0288 32.4745 25.44Z" fill="#FF9900"/>
<path fill-rule="evenodd" clip-rule="evenodd" d="M33.8828 23.8364C33.4511 23.2812 31.0252 23.5691 29.9252 23.7027C29.5963 23.7439 29.5448 23.4559 29.843 23.2402C31.7755 21.8833 34.9519 22.2739 35.322 22.7261C35.692 23.1887 35.2192 26.3652 33.41 27.8866C33.1323 28.123 32.8652 27.9995 32.9884 27.6912C33.3997 26.6736 34.3145 24.3811 33.8828 23.8364Z" fill="#FF9900"/>
</g>
<defs>
<clipPath id="clip0_262_132">
<rect width="40" height="40" fill="white"/>
</clipPath>
</defs>
</svg>
