<svg width="40" height="40" viewBox="0 0 40 40" fill="none" xmlns="http://www.w3.org/2000/svg">
<g clip-path="url(#clip0_262_116)">
<path d="M9.375 0.5H30.625C35.5265 0.5 39.5 4.47347 39.5 9.375V30.625C39.5 35.5265 35.5265 39.5 30.625 39.5H9.375C4.47347 39.5 0.5 35.5265 0.5 30.625V9.375C0.5 4.47347 4.47347 0.5 9.375 0.5Z" fill="#242938" stroke="white"/>
<path fill-rule="evenodd" clip-rule="evenodd" d="M11.8852 6.71875C14.7386 6.71875 17.0516 9.03178 17.0516 11.8852C17.0516 14.7386 14.7386 17.0516 11.8852 17.0516C9.03178 17.0516 6.71875 14.7386 6.71875 11.8852C6.71875 9.03178 9.03178 6.71875 11.8852 6.71875Z" stroke="#2088FF" stroke-linecap="round" stroke-linejoin="round"/>
<path fill-rule="evenodd" clip-rule="evenodd" d="M19.3478 17.0516C21.25 17.0516 22.7922 18.5938 22.7922 20.4959C22.7922 22.3981 21.25 23.9402 19.3478 23.9402C17.4456 23.9402 15.9036 22.3981 15.9036 20.4959C15.9036 18.5938 17.4456 17.0516 19.3478 17.0516Z" stroke="#2088FF" stroke-linecap="round" stroke-linejoin="round"/>
<path fill-rule="evenodd" clip-rule="evenodd" d="M19.3478 26.2364C21.25 26.2364 22.7922 27.7784 22.7922 29.6808C22.7922 31.583 21.25 33.125 19.3478 33.125C17.4456 33.125 15.9036 31.583 15.9036 29.6808C15.9036 27.7784 17.4456 26.2364 19.3478 26.2364Z" stroke="#2088FF" stroke-linecap="round" stroke-linejoin="round"/>
<path fill-rule="evenodd" clip-rule="evenodd" d="M29.6808 26.2364C31.583 26.2364 33.125 27.7784 33.125 29.6808C33.125 31.583 31.583 33.125 29.6808 33.125C27.7784 33.125 26.2364 31.583 26.2364 29.6808C26.2364 27.7784 27.7784 26.2364 29.6808 26.2364Z" stroke="#79B8FF" stroke-linecap="round" stroke-linejoin="round"/>
<path d="M20.5169 19.6963L18.755 21.4558L17.8992 20.603" stroke="#2088FF" stroke-linecap="round" stroke-linejoin="round"/>
<path fill-rule="evenodd" clip-rule="evenodd" d="M29.6808 17.0516C31.583 17.0516 33.125 18.5938 33.125 20.4959C33.125 22.3981 31.583 23.9402 29.6808 23.9402C27.7784 23.9402 26.2364 22.3981 26.2364 20.4959C26.2364 18.5938 27.7784 17.0516 29.6808 17.0516Z" stroke="#2088FF" stroke-linecap="round" stroke-linejoin="round"/>
<path d="M30.8497 19.6963L29.0878 21.4558L28.2322 20.603" stroke="#2088FF" stroke-linecap="round" stroke-linejoin="round"/>
<path d="M10.1631 10.0552C10.1631 9.6034 10.6608 9.32868 11.0431 9.56948L13.9783 11.4185C14.3372 11.6446 14.3354 12.1685 13.9749 12.3921L11.0396 14.2121C10.6572 14.4492 10.1631 14.1742 10.1631 13.7242V10.0552Z" stroke="#2088FF" stroke-linecap="round" stroke-linejoin="round"/>
<path d="M11.3112 17.0516V25.6624C11.3112 27.8816 13.135 29.6806 15.3295 29.6806H15.9036" stroke="#2088FF" stroke-linecap="round" stroke-linejoin="round"/>
<path d="M15.8742 21.0698C16.1912 21.0698 16.4483 20.813 16.4483 20.4958C16.4483 20.1787 16.1912 19.9219 15.8742 19.9219V21.0698ZM10.7371 17.0717C10.7371 19.2798 12.5271 21.0698 14.7352 21.0698V19.9219C13.1612 19.9219 11.8852 18.6458 11.8852 17.0717H10.7371ZM14.7352 21.0698H15.8742V19.9219H14.7352V21.0698Z" fill="#2088FF"/>
<path d="M22.8236 20.4959H26.2361" stroke="#2088FF" stroke-linecap="round" stroke-linejoin="round"/>
<path fill-rule="evenodd" clip-rule="evenodd" d="M18.1997 29.1067C18.5166 29.1067 18.7738 29.3639 18.7738 29.6808C18.7738 29.998 18.5166 30.2548 18.1997 30.2548C17.883 30.2548 17.6256 29.998 17.6256 29.6808C17.6256 29.3639 17.883 29.1067 18.1997 29.1067Z" fill="#79B8FF"/>
<path fill-rule="evenodd" clip-rule="evenodd" d="M20.4959 29.1067C20.8127 29.1067 21.07 29.3639 21.07 29.6808C21.07 29.998 20.8127 30.2548 20.4959 30.2548C20.1792 30.2548 19.9219 29.998 19.9219 29.6808C19.9219 29.3639 20.1792 29.1067 20.4959 29.1067Z" fill="#79B8FF"/>
<path d="M25.6652 29.6845L25.0839 29.7036" stroke="#79B8FF" stroke-linecap="round"/>
</g>
<defs>
<clipPath id="clip0_262_116">
<rect width="40" height="40" fill="white"/>
</clipPath>
</defs>
</svg>
