<svg width="40" height="40" viewBox="0 0 40 40" fill="none" xmlns="http://www.w3.org/2000/svg">
<g clip-path="url(#clip0_262_101)">
<path d="M9.375 0.5H30.625C35.5265 0.5 39.5 4.47347 39.5 9.375V30.625C39.5 35.5265 35.5265 39.5 30.625 39.5H9.375C4.47347 39.5 0.5 35.5265 0.5 30.625V9.375C0.5 4.47347 4.47347 0.5 9.375 0.5Z" fill="#009639" stroke="white"/>
<path d="M30.5216 33.2812C29.8041 33.2812 29.0975 33.002 28.5698 32.4733L12.2381 16.1417V30.5219C12.2381 32.0461 11.0029 33.2812 9.47844 33.2812C7.95509 33.2812 6.71875 32.0461 6.71875 30.5219V9.47934C6.71875 8.36232 7.39211 7.35678 8.42313 6.92962C9.45305 6.50136 10.6408 6.73756 11.4301 7.52787L27.7619 23.8594V9.47934C27.7619 7.95503 28.9972 6.7199 30.5216 6.7199C32.0461 6.7199 33.2812 7.95503 33.2812 9.47934V30.5219C33.2812 31.6377 32.6078 32.6444 31.5769 33.0716C31.2358 33.2128 30.8781 33.2812 30.5216 33.2812Z" fill="white"/>
</g>
<defs>
<clipPath id="clip0_262_101">
<rect width="40" height="40" fill="white"/>
</clipPath>
</defs>
</svg>
