<svg width="40" height="40" viewBox="0 0 40 40" fill="none" xmlns="http://www.w3.org/2000/svg">
<path d="M9.375 0.5H30.625C35.5265 0.5 39.5 4.47347 39.5 9.375V30.625C39.5 35.5265 35.5265 39.5 30.625 39.5H9.375C4.47347 39.5 0.5 35.5265 0.5 30.625V9.375C0.5 4.47347 4.47347 0.5 9.375 0.5Z" fill="#242938" stroke="white"/>
<path d="M20.0002 22.9611C21.6102 22.9611 22.9152 21.6559 22.9152 20.0461C22.9152 18.4363 21.6102 17.1311 20.0002 17.1311C18.3904 17.1311 17.0852 18.4363 17.0852 20.0461C17.0852 21.6559 18.3904 22.9611 20.0002 22.9611Z" fill="#00D8FF"/>
<path fill-rule="evenodd" clip-rule="evenodd" d="M20.0003 14.1193C23.9141 14.1193 27.5498 14.6809 30.2912 15.6246C33.5942 16.7617 35.625 18.4853 35.625 20.0461C35.625 21.6725 33.4728 23.5036 29.9258 24.6787C27.2442 25.5672 23.7155 26.0309 20.0003 26.0309C16.1912 26.0309 12.5842 25.5956 9.87241 24.6689C6.44148 23.4962 4.375 21.6416 4.375 20.0461C4.375 18.498 6.314 16.7877 9.57055 15.6523C12.3221 14.693 16.0477 14.1193 19.9997 14.1193H20.0003Z" stroke="#00D8FF" stroke-width="2"/>
<path fill-rule="evenodd" clip-rule="evenodd" d="M14.8407 17.0997C16.796 13.7094 19.0987 10.8404 21.2859 8.93705C23.9209 6.64384 26.4287 5.74575 27.7806 6.52536C29.1895 7.33786 29.7006 10.1171 28.9467 13.7768C28.3771 16.5436 27.0156 19.832 25.1595 23.0505C23.2565 26.3502 21.0776 29.2573 18.9203 31.143C16.1904 33.5292 13.5513 34.3928 12.1692 33.5958C10.8281 32.823 10.3153 30.2884 10.9586 26.9002C11.5022 24.0372 12.8664 20.5233 14.8401 17.0997H14.8407Z" stroke="#00D8FF" stroke-width="2"/>
<path fill-rule="evenodd" clip-rule="evenodd" d="M14.8456 23.059C12.8848 19.6725 11.5499 16.244 10.9926 13.3987C10.3219 9.97044 10.7961 7.34928 12.1468 6.56741C13.5544 5.75253 16.2175 6.6978 19.0115 9.17869C21.124 11.0543 23.2932 13.8758 25.1546 17.0911C27.0631 20.3876 28.4934 23.7275 29.0498 26.5381C29.7539 30.095 29.184 32.8126 27.8032 33.6119C26.4635 34.3875 24.0118 33.5664 21.3976 31.3167C19.1889 29.4161 16.8257 26.4794 14.8456 23.059Z" stroke="#00D8FF" stroke-width="2"/>
</svg>
